<svg xmlns="http://www.w3.org/2000/svg" xml:space="preserve" style="enable-background:new 0 0 115.77 122.88" viewBox="0 0 115.8 122.9">
  <path d="M89.6 14v7.7h12.2a14 14 0 0 1 14 14v73.2a14 14 0 0 1-14 14H40.1a14 14 0 0 1-14-14V92.5H14a14 14 0 0 1-14-14V14A14 14 0 0 1 14 0h61.7a14 14 0 0 1 13.9 14zM79 21.7V14a3 3 0 0 0-1-2.4c-.6-.6-1.4-1-2.3-1H14c-1 0-1.8.4-2.4 1-.6.6-1 1.4-1 2.4v64.5c0 1 .4 1.8 1 2.4.6.6 1.4 1 2.4 1h12.2V35.6A14 14 0 0 1 40 21.7h39zm26.2 87.2V35.6c0-.9-.4-1.7-1-2.3-.6-.7-1.5-1-2.4-1H40.1a3 3 0 0 0-2.4 1c-.6.6-1 1.4-1 2.3V109c0 1 .4 1.8 1 2.4.6.6 1.5 1 2.4 1h61.7c1 0 1.8-.4 2.4-1 .6-.6 1-1.5 1-2.4z" style="fill-rule:evenodd;clip-rule:evenodd"/>
</svg>
