<svg width="88" height="32" viewBox="0 0 88 32" fill="none" xmlns="http://www.w3.org/2000/svg">
<rect x="0.5" width="87" height="32" rx="16" fill="black" fill-opacity="0.05"/>
<g clip-path="url(#clip0_18_543)">
<path d="M21.1666 15.3334H13.26L15.68 12.4267C15.7931 12.2905 15.8476 12.115 15.8313 11.9387C15.8151 11.7625 15.7294 11.5998 15.5933 11.4867C15.4571 11.3735 15.2816 11.3191 15.1053 11.3353C14.9291 11.3516 14.7665 11.4372 14.6533 11.5734L11.32 15.5734C11.2975 15.6052 11.2775 15.6386 11.26 15.6734C11.26 15.7067 11.26 15.7267 11.2133 15.76C11.1831 15.8365 11.1673 15.9178 11.1666 16C11.1673 16.0822 11.1831 16.1636 11.2133 16.24C11.2133 16.2734 11.2133 16.2934 11.26 16.3267C11.2775 16.3614 11.2975 16.3949 11.32 16.4267L14.6533 20.4267C14.716 20.5019 14.7945 20.5625 14.8832 20.6039C14.9719 20.6454 15.0687 20.6668 15.1666 20.6667C15.3224 20.667 15.4734 20.6127 15.5933 20.5134C15.6608 20.4574 15.7166 20.3887 15.7575 20.3111C15.7984 20.2335 15.8236 20.1487 15.8317 20.0613C15.8397 19.974 15.8304 19.886 15.8044 19.8022C15.7784 19.7185 15.7361 19.6407 15.68 19.5734L13.26 16.6667H21.1666C21.3434 16.6667 21.513 16.5964 21.638 16.4714C21.7631 16.3464 21.8333 16.1768 21.8333 16C21.8333 15.8232 21.7631 15.6536 21.638 15.5286C21.513 15.4036 21.3434 15.3334 21.1666 15.3334Z" fill="#03435F"/>
</g>
<path d="M39.5227 14.5C39.429 14.2131 39.3054 13.956 39.152 13.7287C39.0014 13.4986 38.821 13.3026 38.6108 13.1406C38.4034 12.9787 38.1676 12.8551 37.9034 12.7699C37.6392 12.6847 37.3494 12.642 37.0341 12.642C36.517 12.642 36.0469 12.7756 35.6236 13.0426C35.2003 13.3097 34.8636 13.7031 34.6136 14.223C34.3636 14.7429 34.2386 15.3807 34.2386 16.1364C34.2386 16.892 34.3651 17.5298 34.6179 18.0497C34.8707 18.5696 35.2131 18.9631 35.6449 19.2301C36.0767 19.4972 36.5625 19.6307 37.1023 19.6307C37.6023 19.6307 38.0426 19.5241 38.4233 19.3111C38.8068 19.0952 39.1051 18.7912 39.3182 18.3991C39.5341 18.0043 39.642 17.5398 39.642 17.0057L39.9659 17.0739H37.3409V16.1364H40.6648V17.0739C40.6648 17.7926 40.5114 18.4176 40.2045 18.9489C39.9006 19.4801 39.4801 19.892 38.9432 20.1847C38.4091 20.4744 37.7955 20.6193 37.1023 20.6193C36.3295 20.6193 35.6506 20.4375 35.0653 20.0739C34.483 19.7102 34.0284 19.1932 33.7017 18.5227C33.3778 17.8523 33.2159 17.0568 33.2159 16.1364C33.2159 15.446 33.3082 14.8253 33.4929 14.2741C33.6804 13.7202 33.9446 13.2486 34.2855 12.8594C34.6264 12.4702 35.0298 12.1719 35.4957 11.9645C35.9616 11.7571 36.4744 11.6534 37.0341 11.6534C37.4943 11.6534 37.9233 11.723 38.321 11.8622C38.7216 11.9986 39.0781 12.1932 39.3906 12.446C39.706 12.696 39.9688 12.9957 40.179 13.3452C40.3892 13.6918 40.5341 14.0767 40.6136 14.5H39.5227ZM44.9975 20.6364C44.4066 20.6364 43.8881 20.4957 43.4421 20.2145C42.9989 19.9332 42.6523 19.5398 42.4023 19.0341C42.1552 18.5284 42.0316 17.9375 42.0316 17.2614C42.0316 16.5795 42.1552 15.9844 42.4023 15.4759C42.6523 14.9673 42.9989 14.5724 43.4421 14.2912C43.8881 14.0099 44.4066 13.8693 44.9975 13.8693C45.5884 13.8693 46.1055 14.0099 46.5487 14.2912C46.9947 14.5724 47.3413 14.9673 47.5884 15.4759C47.8384 15.9844 47.9634 16.5795 47.9634 17.2614C47.9634 17.9375 47.8384 18.5284 47.5884 19.0341C47.3413 19.5398 46.9947 19.9332 46.5487 20.2145C46.1055 20.4957 45.5884 20.6364 44.9975 20.6364ZM44.9975 19.733C45.4464 19.733 45.8157 19.6179 46.1055 19.3878C46.3952 19.1577 46.6097 18.8551 46.7489 18.4801C46.8881 18.1051 46.9577 17.6989 46.9577 17.2614C46.9577 16.8239 46.8881 16.4162 46.7489 16.0384C46.6097 15.6605 46.3952 15.3551 46.1055 15.1222C45.8157 14.8892 45.4464 14.7727 44.9975 14.7727C44.5487 14.7727 44.1793 14.8892 43.8896 15.1222C43.5998 15.3551 43.3853 15.6605 43.2461 16.0384C43.1069 16.4162 43.0373 16.8239 43.0373 17.2614C43.0373 17.6989 43.1069 18.1051 43.2461 18.4801C43.3853 18.8551 43.5998 19.1577 43.8896 19.3878C44.1793 19.6179 44.5487 19.733 44.9975 19.733ZM53.0099 20.5V11.7727H54.0156V14.9943H54.1009C54.1747 14.8807 54.277 14.7358 54.4077 14.5597C54.5412 14.3807 54.7315 14.2216 54.9787 14.0824C55.2287 13.9403 55.5668 13.8693 55.9929 13.8693C56.544 13.8693 57.0298 14.0071 57.4503 14.2827C57.8707 14.5582 58.1989 14.9489 58.4347 15.4545C58.6705 15.9602 58.7884 16.5568 58.7884 17.2443C58.7884 17.9375 58.6705 18.5384 58.4347 19.0469C58.1989 19.5526 57.8722 19.9446 57.4545 20.223C57.0369 20.4986 56.5554 20.6364 56.0099 20.6364C55.5895 20.6364 55.2528 20.5668 55 20.4276C54.7472 20.2855 54.5526 20.125 54.4162 19.946C54.2798 19.7642 54.1747 19.6136 54.1009 19.4943H53.9815V20.5H53.0099ZM53.9986 17.2273C53.9986 17.7216 54.071 18.1577 54.2159 18.5355C54.3608 18.9105 54.5724 19.2045 54.8509 19.4176C55.1293 19.6278 55.4702 19.733 55.8736 19.733C56.294 19.733 56.6449 19.6222 56.9261 19.4006C57.2102 19.1761 57.4233 18.875 57.5653 18.4972C57.7102 18.1165 57.7827 17.6932 57.7827 17.2273C57.7827 16.767 57.7116 16.3523 57.5696 15.983C57.4304 15.6108 57.2188 15.3168 56.9347 15.1009C56.6534 14.8821 56.2997 14.7727 55.8736 14.7727C55.4645 14.7727 55.1207 14.8764 54.8423 15.0838C54.5639 15.2884 54.3537 15.5753 54.2116 15.9446C54.0696 16.3111 53.9986 16.7386 53.9986 17.2273ZM62.2528 20.6534C61.8381 20.6534 61.4616 20.5753 61.1236 20.419C60.7855 20.2599 60.517 20.0312 60.3182 19.733C60.1193 19.4318 60.0199 19.0682 60.0199 18.642C60.0199 18.267 60.0938 17.9631 60.2415 17.7301C60.3892 17.4943 60.5866 17.3097 60.8338 17.1761C61.081 17.0426 61.3537 16.9432 61.652 16.8778C61.9531 16.8097 62.2557 16.7557 62.5597 16.7159C62.9574 16.6648 63.2798 16.6264 63.527 16.6009C63.777 16.5724 63.9588 16.5256 64.0724 16.4602C64.1889 16.3949 64.2472 16.2812 64.2472 16.1193V16.0852C64.2472 15.6648 64.1321 15.3381 63.902 15.1051C63.6747 14.8722 63.3295 14.7557 62.8665 14.7557C62.3864 14.7557 62.0099 14.8608 61.7372 15.071C61.4645 15.2812 61.2727 15.5057 61.1619 15.7443L60.2074 15.4034C60.3778 15.0057 60.6051 14.696 60.8892 14.4744C61.1761 14.25 61.4886 14.0937 61.8267 14.0057C62.1676 13.9148 62.5028 13.8693 62.8324 13.8693C63.0426 13.8693 63.2841 13.8949 63.5568 13.946C63.8324 13.9943 64.098 14.0952 64.3537 14.2486C64.6122 14.402 64.8267 14.6335 64.9972 14.9432C65.1676 15.2528 65.2528 15.6676 65.2528 16.1875V20.5H64.2472V19.6136H64.196C64.1278 19.7557 64.0142 19.9077 63.8551 20.0696C63.696 20.2315 63.4844 20.3693 63.2202 20.483C62.956 20.5966 62.6335 20.6534 62.2528 20.6534ZM62.4062 19.75C62.804 19.75 63.1392 19.6719 63.4119 19.5156C63.6875 19.3594 63.8949 19.1577 64.0341 18.9105C64.1761 18.6634 64.2472 18.4034 64.2472 18.1307V17.2102C64.2045 17.2614 64.1108 17.3082 63.9659 17.3509C63.8239 17.3906 63.6591 17.4261 63.4716 17.4574C63.2869 17.4858 63.1065 17.5114 62.9304 17.5341C62.7571 17.554 62.6165 17.571 62.5085 17.5852C62.2472 17.6193 62.0028 17.6747 61.7756 17.7514C61.5511 17.8253 61.3693 17.9375 61.2301 18.0881C61.0938 18.2358 61.0256 18.4375 61.0256 18.6932C61.0256 19.0426 61.1548 19.3068 61.4134 19.4858C61.6747 19.6619 62.0057 19.75 62.4062 19.75ZM69.7475 20.6364C69.1339 20.6364 68.6055 20.4915 68.1623 20.2017C67.7191 19.9119 67.3782 19.5128 67.1396 19.0043C66.9009 18.4957 66.7816 17.9148 66.7816 17.2614C66.7816 16.5966 66.9038 16.0099 67.1481 15.5014C67.3952 14.9901 67.739 14.5909 68.1793 14.304C68.6225 14.0142 69.1396 13.8693 69.7305 13.8693C70.1907 13.8693 70.6055 13.9545 70.9748 14.125C71.3441 14.2955 71.6467 14.5341 71.8825 14.8409C72.1183 15.1477 72.2646 15.5057 72.3214 15.9148H71.3157C71.239 15.6165 71.0685 15.3523 70.8043 15.1222C70.543 14.8892 70.1907 14.7727 69.7475 14.7727C69.3555 14.7727 69.0117 14.875 68.7163 15.0795C68.4237 15.2812 68.195 15.5668 68.0302 15.9361C67.8683 16.3026 67.7873 16.733 67.7873 17.2273C67.7873 17.733 67.8668 18.1733 68.0259 18.5483C68.1879 18.9233 68.4151 19.2145 68.7077 19.4219C69.0032 19.6293 69.3498 19.733 69.7475 19.733C70.0089 19.733 70.2461 19.6875 70.4592 19.5966C70.6722 19.5057 70.8526 19.375 71.0004 19.2045C71.1481 19.0341 71.2532 18.8295 71.3157 18.5909H72.3214C72.2646 18.9773 72.1239 19.3253 71.8995 19.6349C71.6779 19.9418 71.3839 20.1861 71.0174 20.3679C70.6538 20.5469 70.2305 20.6364 69.7475 20.6364ZM74.729 18.1136L74.712 16.8693H74.9165L77.7802 13.9545H79.0245L75.9734 17.0398H75.8881L74.729 18.1136ZM73.7915 20.5V11.7727H74.7972V20.5H73.7915ZM77.9506 20.5L75.3938 17.2614L76.1097 16.5625L79.229 20.5H77.9506Z" fill="#21334F"/>
<defs>
<clipPath id="clip0_18_543">
<rect width="16" height="16" fill="white" transform="translate(8.5 8)"/>
</clipPath>
</defs>
</svg>
